<svg xmlns="http://www.w3.org/2000/svg" xmlns:xlink="http://www.w3.org/1999/xlink" preserveAspectRatio="xMidYMid" width="500" height="500" viewBox="0 0 500 500">
  <defs>
    <style>
      .cls-1 {
        fill: #000;
        stroke: #ed145b;
        fill-rule: evenodd;
      }
    </style>
  </defs>
  <path d="M461.439,464.313 C446.019,479.807 420.885,479.885 405.388,464.442 L265.021,324.826 C255.080,314.966 251.503,301.154 254.250,288.412 C229.612,306.835 199.806,316.831 168.424,316.898 C129.874,317.001 93.643,302.104 66.404,275.009 C39.149,247.912 24.084,211.807 23.994,173.319 C23.904,134.807 38.809,98.586 65.966,71.335 C122.050,15.078 213.496,14.859 269.823,70.860 C320.938,121.730 325.796,201.718 284.304,258.131 C297.061,255.279 310.949,258.776 320.939,268.698 L461.351,408.321 C476.847,423.766 476.904,448.827 461.439,464.313 ZM268.583,172.701 C268.531,145.862 258.037,120.688 239.033,101.799 C199.783,62.731 135.999,62.865 96.863,102.086 C57.756,141.369 57.886,205.071 97.154,244.097 C136.410,283.165 200.182,283.035 239.315,243.797 C258.247,224.804 268.644,199.553 268.583,172.701 Z" class="cls-1"/>
</svg>
