<svg xmlns="http://www.w3.org/2000/svg" xmlns:xlink="http://www.w3.org/1999/xlink" preserveAspectRatio="xMidYMid" width="100" height="100" viewBox="0 0 100 100">
  <defs>
    <style>
      .cls-1 {
        fill: #000;
        stroke: #ed145b;
        fill-rule: evenodd;
      }
    </style>
  </defs>
  <path d="M92.288,92.863 C89.204,95.961 84.177,95.977 81.078,92.888 L53.004,64.965 C51.016,62.993 50.301,60.231 50.850,57.682 C45.922,61.367 39.961,63.366 33.685,63.380 C25.975,63.400 18.729,60.421 13.281,55.002 C7.830,49.582 4.817,42.361 4.799,34.664 C4.781,26.961 7.762,19.717 13.193,14.267 C24.410,3.016 42.699,2.972 53.965,14.172 C64.188,24.346 65.159,40.344 56.861,51.626 C59.412,51.056 62.190,51.755 64.188,53.740 L92.270,81.664 C95.369,84.753 95.381,89.765 92.288,92.863 ZM53.717,34.540 C53.706,29.172 51.607,24.138 47.807,20.360 C39.957,12.546 27.200,12.573 19.373,20.417 C11.551,28.274 11.577,41.014 19.431,48.819 C27.282,56.633 40.036,56.607 47.863,48.759 C51.649,44.961 53.729,39.911 53.717,34.540 Z" class="cls-1"/>
</svg>
